<?xml version="1.0" encoding="utf-8"?>
<!-- Generator: Adobe Illustrator 17.1.0, SVG Export Plug-In . SVG Version: 6.00 Build 0)  -->
<!DOCTYPE svg PUBLIC "-//W3C//DTD SVG 1.1//EN" "http://www.w3.org/Graphics/SVG/1.1/DTD/svg11.dtd">
<svg version="1.1" id="Layer_1" xmlns="http://www.w3.org/2000/svg" xmlns:xlink="http://www.w3.org/1999/xlink" x="0px" y="0px"
	 viewBox="0 0 16.1 17.3" enable-background="new 0 0 16.1 17.3" xml:space="preserve">
<path fill="#AF9C9A" d="M8,17.3c-0.1,0-0.2,0-0.3-0.1c-9.2-8.3-7.7-13.7-7.6-14C0.4,2.2,1.5,0,4,0C6.4,0,7.5,1.1,8,1.9
	C8.6,1.1,9.7,0,12.1,0c2.5,0,3.6,2.2,3.8,3.3c0.1,0.2,1.5,5.6-7.6,13.9C8.2,17.3,8.1,17.3,8,17.3z M4,0.8c-2.4,0-3,2.5-3,2.7
	c0,0.1-1.3,5.1,7.1,12.9c8.5-7.8,7.1-12.8,7.1-12.8c0-0.1-0.6-2.7-3-2.7C8.9,0.8,8.4,3,8.4,3.1c0,0.2-0.2,0.3-0.4,0.3l0,0
	c-0.2,0-0.4-0.1-0.4-0.3C7.6,3,7.1,0.8,4,0.8z"/>
</svg>
